# xmcd CD database file
#
# Track frame offsets:
#	150
#	18564
#	36824
#	51914
#	69889
#	84876
#	98583
#	114605
#	132652
#	145411
#	156136
#	171648
#	187469
#	202092
#	217018
#	232408
#
# Disc length: 3289 seconds
#
# Revision: 0
# Processed by: cddbd v1.4PL0 Copyright (c) Steve Scherf et al.
# Submitted via: CDex 1.40Beta9
#
DISCID=fa0cd710
DTITLE=SHIRL BROWN - Life On The Road
DYEAR=2002
DGENRE=Country
TTITLE0=Back To Sheffield(4.05)~
TTITLE1=Crazy(4.03)~
TTITLE2=Blame It On Your Heart(3.21)~
TTITLE3=Yellow Roses(3.59)~
TTITLE4=Somewhere Between(3.19)~
TTITLE5=Life On The Road(3.02)~
TTITLE6=Don't Worry Bout Me(3.33)~
TTITLE7=That's What I'm Gonna Do(4.00)~
TTITLE8=Let Your Love Flow(2.50)~
TTITLE9=From The Heart(2.23)~
TTITLE10=When You Say Nothin' At All(3.26)~
TTITLE11=Beautiful Body(3.30)~
TTITLE12=Waltze Across Texus(3.14)~
TTITLE13=Save The Last Dance(3.19)~
TTITLE14=Rocking Alone(3.25)~
TTITLE15=Don't Forget To Remember Me(3.10)~
EXTD=YEAR: 2002 ID3G: 2
EXTT0=
EXTT1=
EXTT2=
EXTT3=
EXTT4=
EXTT5=
EXTT6=
EXTT7=
EXTT8=
EXTT9=
EXTT10=
EXTT11=
EXTT12=
EXTT13=
EXTT14=
EXTT15=
PLAYORDER=
